<svg id="Ebene_1" data-name="Ebene 1" xmlns="http://www.w3.org/2000/svg" viewBox="0 0 86.6 254.5"><defs><style>.cls-1{fill:#e57a9b;fill-rule:evenodd;}</style></defs><title>Unbenannt-1</title><path class="cls-1" d="M102,189.5c.88-.91,1.84-1.84,2.86-2.82,5.28-5.06,11.85-11.35,11.85-23.49s-6.57-18.43-11.85-23.48c-4.73-4.53-8.15-7.8-8.15-14.82s3.42-10.29,8.15-14.81c5.28-5.06,11.85-11.35,11.85-23.48s-6.57-18.43-11.85-23.48c-4.73-4.53-8.15-7.8-8.15-14.82S100.17,38,104.9,33.48c5.28-5.06,11.85-11.35,11.85-23.48h-12c0,7-3.42,10.28-8.15,14.81C91.32,29.87,84.75,36.16,84.75,48.3S91.32,66.73,96.6,71.78c4.73,4.53,8.15,7.8,8.15,14.82s-3.42,10.29-8.15,14.81c-5.28,5.06-11.85,11.35-11.85,23.48s6.57,18.43,11.85,23.48c4.73,4.53,8.15,7.8,8.15,14.82S101.33,173.48,96.6,178c-3.18,3-6.81,6.54-9.21,11.49H57.45L79.1,227l21.65,37.5L122.4,227l21.65-37.5Z" transform="translate(-57.45 -10)"/></svg>