<svg id="Ebene_1" data-name="Ebene 1" xmlns="http://www.w3.org/2000/svg" xmlns:xlink="http://www.w3.org/1999/xlink" viewBox="0 0 439.37 419.57"><defs><style>.cls-1{fill:#1e8059;}.cls-2{fill:url(#Unbenannter_Verlauf_4);}.cls-3{fill:#e57a9b;}.cls-4{fill:url(#Unbenannter_Verlauf_4-2);}.cls-5{fill:url(#Unbenannter_Verlauf_4-3);}.cls-6{fill:url(#Unbenannter_Verlauf_4-4);}.cls-7{fill:url(#Unbenannter_Verlauf_4-5);}</style><linearGradient id="Unbenannter_Verlauf_4" x1="77.93" y1="281.32" x2="354.43" y2="281.32" gradientUnits="userSpaceOnUse"><stop offset="0" stop-color="#F0A56B"/><stop offset="0.31" stop-color="#EEA56B"/><stop offset="0.46" stop-color="#E6A36A"/><stop offset="0.57" stop-color="#DAA169"/><stop offset="0.66" stop-color="#C79E68"/><stop offset="0.74" stop-color="#B09A65"/><stop offset="0.81" stop-color="#939563"/><stop offset="0.88" stop-color="#708E60"/><stop offset="0.94" stop-color="#49885D"/><stop offset="1" stop-color="#1E8059"/></linearGradient><linearGradient id="Unbenannter_Verlauf_4-2" x1="16.24" y1="220" x2="148.58" y2="220" xlink:href="#Unbenannter_Verlauf_4"/><linearGradient id="Unbenannter_Verlauf_4-3" x1="292.32" y1="220" x2="424.66" y2="220" xlink:href="#Unbenannter_Verlauf_4"/><linearGradient id="Unbenannter_Verlauf_4-4" x1="242.17" y1="158.39" x2="381.38" y2="158.39" gradientTransform="translate(413.62 -176.15) rotate(80)" xlink:href="#Unbenannter_Verlauf_4"/><linearGradient id="Unbenannter_Verlauf_4-5" x1="117.8" y1="158.39" x2="257.01" y2="158.39" gradientTransform="matrix(0.98, 0.17, -0.17, 0.98, 30.35, -30.14)" xlink:href="#Unbenannter_Verlauf_4"/></defs><title>Unbenannt-2</title><polygon class="cls-1" points="305.89 44.8 281.48 35.77 301.51 19.15 321.54 2.52 325.92 28.18 330.31 53.84 305.89 44.8"/><polygon class="cls-1" points="133.03 42.54 108.47 51.16 113.29 25.58 118.1 0 137.85 16.96 157.59 33.92 133.03 42.54"/><polygon class="cls-1" points="35.23 187.61 18.99 207.95 9.49 183.71 0 159.48 25.74 163.37 51.47 167.27 35.23 187.61"/><polygon class="cls-1" points="404.01 187.53 387.86 167.11 413.62 163.34 439.37 159.56 429.76 183.75 420.16 207.94 404.01 187.53"/><circle class="cls-2" cx="216.18" cy="281.32" r="138.25"/><circle class="cls-3" cx="220.02" cy="286.48" r="80.52"/><circle class="cls-4" cx="82.41" cy="220" r="66.17"/><circle class="cls-3" cx="83.21" cy="221.6" r="39.86"/><circle class="cls-5" cx="358.49" cy="220" r="66.17"/><circle class="cls-3" cx="360.08" cy="221.6" r="39.86"/><ellipse class="cls-6" cx="311.78" cy="158.39" rx="87.49" ry="68.96" transform="translate(71.02 397.49) rotate(-80)"/><ellipse class="cls-3" cx="312.18" cy="146.43" rx="49.43" ry="39.86" transform="translate(83.13 388) rotate(-80)"/><ellipse class="cls-7" cx="187.41" cy="158.39" rx="68.96" ry="87.49" transform="translate(-55.29 -5.48) rotate(-10)"/><ellipse class="cls-3" cx="183.02" cy="149.62" rx="39.86" ry="49.43" transform="matrix(0.98, -0.17, 0.17, 0.98, -53.83, -6.38)"/></svg>