<svg id="Ebene_1" data-name="Ebene 1" xmlns="http://www.w3.org/2000/svg" xmlns:xlink="http://www.w3.org/1999/xlink" viewBox="0 0 471.5 384.84"><defs><style>.cls-1{fill:url(#Unbenannter_Verlauf_4);}.cls-2{fill:url(#Unbenannter_Verlauf_7);}.cls-3{fill:url(#Unbenannter_Verlauf_4-2);}.cls-4{fill:url(#Unbenannter_Verlauf_7-2);}.cls-5{fill:#fff;}.cls-6{fill:url(#Unbenannter_Verlauf_4-3);}.cls-7{fill:url(#Unbenannter_Verlauf_7-3);}.cls-8{fill:url(#Unbenannter_Verlauf_7-4);}.cls-9{fill:none;stroke:#e57a9b;stroke-linecap:round;stroke-miterlimit:10;stroke-width:15px;}.cls-10{fill:url(#Unbenannter_Verlauf_7-5);}</style><linearGradient id="Unbenannter_Verlauf_4" y1="88.99" x2="177.98" y2="88.99" gradientUnits="userSpaceOnUse"><stop offset="0" stop-color="#f0a56b"/><stop offset="0.31" stop-color="#eea56b"/><stop offset="0.46" stop-color="#e6a36a"/><stop offset="0.57" stop-color="#daa169"/><stop offset="0.66" stop-color="#c79e68"/><stop offset="0.74" stop-color="#b09a65"/><stop offset="0.81" stop-color="#939563"/><stop offset="0.88" stop-color="#708e60"/><stop offset="0.94" stop-color="#49885d"/><stop offset="1" stop-color="#1e8059"/></linearGradient><linearGradient id="Unbenannter_Verlauf_7" x1="42.4" y1="86.66" x2="135.58" y2="86.66" gradientUnits="userSpaceOnUse"><stop offset="0" stop-color="#e57a9b"/><stop offset="0.32" stop-color="#e37a9a"/><stop offset="0.46" stop-color="#db7a98"/><stop offset="0.58" stop-color="#cf7b94"/><stop offset="0.67" stop-color="#bc7b8e"/><stop offset="0.75" stop-color="#a57c86"/><stop offset="0.83" stop-color="#887d7c"/><stop offset="0.89" stop-color="#657e70"/><stop offset="0.96" stop-color="#3e7f64"/><stop offset="1" stop-color="#1e8059"/></linearGradient><linearGradient id="Unbenannter_Verlauf_4-2" x1="293.52" y1="89.92" x2="471.5" y2="89.92" xlink:href="#Unbenannter_Verlauf_4"/><linearGradient id="Unbenannter_Verlauf_7-2" x1="337.78" y1="87.59" x2="430.97" y2="87.59" xlink:href="#Unbenannter_Verlauf_7"/><linearGradient id="Unbenannter_Verlauf_4-3" x1="58.7" y1="206.86" x2="414.66" y2="206.86" xlink:href="#Unbenannter_Verlauf_4"/><linearGradient id="Unbenannter_Verlauf_7-3" x1="116.94" y1="178.44" x2="233.42" y2="178.44" xlink:href="#Unbenannter_Verlauf_7"/><linearGradient id="Unbenannter_Verlauf_7-4" x1="250.19" y1="178.44" x2="366.67" y2="178.44" xlink:href="#Unbenannter_Verlauf_7"/><linearGradient id="Unbenannter_Verlauf_7-5" x1="225.5" y1="250.66" x2="259.98" y2="250.66" xlink:href="#Unbenannter_Verlauf_7"/></defs><title>panda_bunt_02</title><circle class="cls-1" cx="88.99" cy="88.99" r="88.99"/><circle class="cls-2" cx="88.99" cy="86.66" r="46.59"/><circle class="cls-3" cx="382.51" cy="89.92" r="88.99"/><circle class="cls-4" cx="384.38" cy="87.59" r="46.59"/><circle class="cls-5" cx="307.97" cy="171.45" r="46.59"/><circle class="cls-5" cx="188.69" cy="174.25" r="46.59"/><circle class="cls-6" cx="236.68" cy="206.86" r="177.98"/><circle class="cls-7" cx="175.18" cy="178.44" r="58.24"/><circle class="cls-5" cx="175.18" cy="178.44" r="17.24"/><circle class="cls-8" cx="308.43" cy="178.44" r="58.24"/><circle class="cls-5" cx="308.43" cy="179.38" r="17.24"/><path class="cls-9" d="M361.52,318.23a110,110,0,0,1-69,72.91c-56.89,20.06-120.2-10.25-140.26-67.14" transform="translate(-14.25 -57.58)"/><circle class="cls-10" cx="242.74" cy="250.66" r="17.24"/></svg>