<svg id="Ebene_1" data-name="Ebene 1" xmlns="http://www.w3.org/2000/svg" xmlns:xlink="http://www.w3.org/1999/xlink" viewBox="0 0 439.37 419.57"><defs><style>.cls-1{fill:#1e8059;}.cls-2{fill:url(#Unbenannter_Verlauf_4);}.cls-3{fill:#e57a9b;}</style><linearGradient id="Unbenannter_Verlauf_4" x1="46.87" y1="265.69" x2="455.29" y2="265.69" gradientUnits="userSpaceOnUse"><stop offset="0" stop-color="#f0a56b"/><stop offset="0.31" stop-color="#eea56b"/><stop offset="0.46" stop-color="#e6a36a"/><stop offset="0.57" stop-color="#daa169"/><stop offset="0.66" stop-color="#c79e68"/><stop offset="0.74" stop-color="#b09a65"/><stop offset="0.81" stop-color="#939563"/><stop offset="0.88" stop-color="#708e60"/><stop offset="0.94" stop-color="#49885d"/><stop offset="1" stop-color="#1e8059"/></linearGradient></defs><title>paw_02</title><polygon class="cls-1" points="305.89 44.8 281.48 35.77 301.51 19.15 321.54 2.52 325.92 28.18 330.31 53.84 305.89 44.8"/><polygon class="cls-1" points="133.03 42.54 108.47 51.16 113.29 25.58 118.1 0 137.85 16.96 157.59 33.92 133.03 42.54"/><polygon class="cls-1" points="35.23 187.61 18.99 207.95 9.49 183.71 0 159.48 25.74 163.37 51.47 167.27 35.23 187.61"/><polygon class="cls-1" points="404.01 187.53 387.86 167.11 413.62 163.34 439.37 159.56 429.76 183.75 420.16 207.94 404.01 187.53"/><path class="cls-2" d="M389.12,194.27a66.2,66.2,0,0,0-17.53,2.37,109.07,109.07,0,0,0,8.11-26.27c8.39-47.59-15.21-91.52-52.72-98.14-31.81-5.61-63.39,17.43-77.38,53.57-14-36.15-45.57-59.18-77.38-53.57-37.51,6.61-61.11,50.55-52.72,98.14a109.24,109.24,0,0,0,7.73,25.44,66.16,66.16,0,1,0-18.58,130.64,138.24,138.24,0,0,0,276.32,0c1.37.09,2.75.14,4.15.14a66.17,66.17,0,1,0,0-132.34Z" transform="translate(-30.63 -40.43)"/><circle class="cls-3" cx="220.02" cy="286.48" r="80.52"/><circle class="cls-3" cx="83.21" cy="221.6" r="39.86"/><circle class="cls-3" cx="360.08" cy="221.6" r="39.86"/><ellipse class="cls-3" cx="312.18" cy="146.43" rx="49.43" ry="39.86" transform="translate(83.13 388) rotate(-80)"/><ellipse class="cls-3" cx="183.02" cy="149.62" rx="39.86" ry="49.43" transform="matrix(0.98, -0.17, 0.17, 0.98, -53.83, -6.38)"/></svg>